<svg width="140" height="47" viewBox="0 0 140 47" fill="none" xmlns="http://www.w3.org/2000/svg">
<path d="M5.89844 37.3047C4.88281 37.3307 4.04948 37.1484 3.39844 36.7578C2.72135 36.3672 2.20052 35.7943 1.83594 35.0391C1.44531 34.3099 1.19792 33.4115 1.09375 32.3438C0.989583 31.3021 0.989583 30.1562 1.09375 28.9062C1.22396 27.9427 1.45833 26.9401 1.79688 25.8984C2.08333 25.013 2.52604 24.0365 3.125 22.9688C3.69792 21.901 4.47917 20.8594 5.46875 19.8438C5.67708 19.8958 5.84635 19.9609 5.97656 20.0391C6.10677 20.0911 6.21094 20.1562 6.28906 20.2344C6.36719 20.3385 6.41927 20.4297 6.44531 20.5078C6.4974 20.7943 6.41927 21.1198 6.21094 21.4844C6.0026 21.849 5.79427 22.2396 5.58594 22.6562C5.01302 23.8542 4.58333 24.987 4.29688 26.0547C4.01042 27.1224 3.82812 28.112 3.75 29.0234C3.69792 29.8047 3.71094 30.5078 3.78906 31.1328C3.84115 31.7839 3.93229 32.3307 4.0625 32.7734C4.19271 33.2422 4.33594 33.5938 4.49219 33.8281C4.64844 34.0885 4.79167 34.2188 4.92188 34.2188C5.05208 34.2188 5.18229 34.1276 5.3125 33.9453C5.46875 33.763 5.61198 33.5417 5.74219 33.2812C5.89844 33.0208 6.08073 32.6172 6.28906 32.0703C6.4974 31.5495 6.71875 30.9375 6.95312 30.2344C7.1875 29.5312 7.40885 28.776 7.61719 27.9688C7.85156 27.1354 8.0599 26.3021 8.24219 25.4688C8.60677 23.8021 8.9974 21.9271 9.41406 19.8438C9.83073 17.7344 10.4427 15.5339 11.25 13.2422C11.5104 12.2786 11.8359 11.224 12.2266 10.0781C12.5391 9.08854 12.9297 7.94271 13.3984 6.64062C13.8932 5.3125 14.4531 3.88021 15.0781 2.34375C15.0781 2.21354 15.1823 2.09635 15.3906 1.99219C15.625 1.86198 15.8854 1.73177 16.1719 1.60156C16.4844 1.47135 16.8359 1.34115 17.2266 1.21094C17.7474 1.02865 18.151 0.924479 18.4375 0.898438C18.75 0.872396 18.9844 0.911458 19.1406 1.01562C19.2969 1.11979 19.401 1.26302 19.4531 1.44531C19.5052 1.60156 19.5312 1.78385 19.5312 1.99219C19.5833 2.85156 19.6094 3.65885 19.6094 4.41406C19.6354 5.16927 19.6615 5.83333 19.6875 6.40625C19.7135 7.08333 19.7266 7.69531 19.7266 8.24219C19.7526 8.97135 19.7135 9.94792 19.6094 11.1719C19.5052 12.3698 19.388 13.6328 19.2578 14.9609C19.1536 16.2891 19.0495 17.5911 18.9453 18.8672C18.8672 20.1172 18.8542 21.1589 18.9062 21.9922C18.9062 22.4349 18.9193 22.8516 18.9453 23.2422C18.9974 23.6068 19.0495 23.9714 19.1016 24.3359C19.4401 23.3984 19.8177 22.4219 20.2344 21.4062C20.651 20.3646 21.0677 19.375 21.4844 18.4375C21.901 17.474 22.2917 16.5885 22.6562 15.7812C23.0208 14.9479 23.3073 14.2578 23.5156 13.7109C23.8281 12.9818 24.2448 12.0573 24.7656 10.9375C25.2865 9.81771 25.8073 8.69792 26.3281 7.57812C26.875 6.45833 27.3698 5.42969 27.8125 4.49219C28.2812 3.55469 28.6198 2.90365 28.8281 2.53906C28.9844 2.27865 29.2448 2.04427 29.6094 1.83594C30 1.6276 30.4036 1.44531 30.8203 1.28906C31.263 1.13281 31.6667 1.02865 32.0312 0.976562C32.4219 0.898438 32.6823 0.885417 32.8125 0.9375C33.151 1.01562 33.3854 1.11979 33.5156 1.25C33.6719 1.38021 33.763 1.47135 33.7891 1.52344C33.8411 1.6276 33.8802 1.8099 33.9062 2.07031C33.9323 2.30469 33.9193 2.68229 33.8672 3.20312C33.8151 3.82812 33.6589 4.77865 33.3984 6.05469C33.1641 7.33073 32.8646 8.78906 32.5 10.4297C32.1615 12.0443 31.7839 13.776 31.3672 15.625C30.9766 17.474 30.599 19.2969 30.2344 21.0938C29.8698 22.8646 29.5443 24.5312 29.2578 26.0938C28.9974 27.6562 28.8281 28.9714 28.75 30.0391C28.6979 31.237 28.776 32.2917 28.9844 33.2031C29.0625 33.5938 29.1797 33.9714 29.3359 34.3359C29.4922 34.7005 29.7005 35.013 29.9609 35.2734C30.2214 35.5599 30.5339 35.7682 30.8984 35.8984C31.263 36.0286 31.6927 36.0677 32.1875 36.0156C31.5365 36.4583 30.8984 36.7839 30.2734 36.9922C29.6484 37.2005 29.0365 37.3047 28.4375 37.3047C27.7865 37.3307 27.2135 37.2266 26.7188 36.9922C26.224 36.7839 25.8073 36.4714 25.4688 36.0547C25.1302 35.6641 24.8828 35.1823 24.7266 34.6094C24.5703 34.0625 24.5182 33.4505 24.5703 32.7734C24.6224 32.1484 24.7917 31.1198 25.0781 29.6875C25.3646 28.2552 25.7031 26.6406 26.0938 24.8438C26.5104 23.0208 26.9531 21.1328 27.4219 19.1797C27.9167 17.2005 28.3724 15.3516 28.7891 13.6328C29.2318 11.888 29.6094 10.3906 29.9219 9.14062C30.2344 7.89062 30.4297 7.07031 30.5078 6.67969C30.5599 6.36719 30.599 6.08073 30.625 5.82031C30.6771 5.53385 30.7292 5.28646 30.7812 5.07812C30.5208 5.59896 30.1953 6.22396 29.8047 6.95312C29.4401 7.68229 29.0495 8.46354 28.6328 9.29688C28.2161 10.1302 27.7865 11.0026 27.3438 11.9141C26.9271 12.7995 26.5234 13.6589 26.1328 14.4922C25.4818 15.8464 24.8438 17.2396 24.2188 18.6719C23.5938 20.0781 23.0339 21.4193 22.5391 22.6953C22.0443 23.9714 21.6276 25.1172 21.2891 26.1328C20.9766 27.1484 20.7943 27.9297 20.7422 28.4766V29.0234C20.7422 29.1797 20.7422 29.362 20.7422 29.5703C20.7682 29.7786 20.8073 29.974 20.8594 30.1562L19.2969 31.3672C19.0625 31.4453 18.8542 31.5104 18.6719 31.5625C18.5156 31.6146 18.3594 31.6406 18.2031 31.6406C17.6042 31.6406 17.1484 31.3281 16.8359 30.7031C16.5234 30.1302 16.237 29.0104 15.9766 27.3438C15.7161 25.6771 15.638 23.6328 15.7422 21.2109C15.7943 20.013 15.8724 18.8021 15.9766 17.5781C16.1068 16.3542 16.224 15.1823 16.3281 14.0625C16.4583 12.9427 16.5755 11.901 16.6797 10.9375C16.7839 9.94792 16.8359 9.10156 16.8359 8.39844C16.862 7.8776 16.849 7.40885 16.7969 6.99219C16.7448 6.54948 16.6927 6.14583 16.6406 5.78125C16.4062 6.38021 16.1458 7.20052 15.8594 8.24219C15.5729 9.25781 15.2734 10.3906 14.9609 11.6406C14.6484 12.8906 14.3229 14.2057 13.9844 15.5859C13.6719 16.9661 13.3594 18.2943 13.0469 19.5703C12.7604 20.8464 12.487 22.0312 12.2266 23.125C11.9661 24.1927 11.7578 25.0521 11.6016 25.7031C11.3411 26.7448 11.0807 27.9297 10.8203 29.2578C10.5599 30.5859 10.2344 31.8359 9.84375 33.0078C9.45312 34.2057 8.94531 35.2083 8.32031 36.0156C7.69531 36.849 6.88802 37.2786 5.89844 37.3047ZM44.6094 15.625C44.9479 15.3646 45.2734 15.1693 45.5859 15.0391C45.9245 14.8828 46.224 14.7786 46.4844 14.7266C46.7708 14.6484 47.0573 14.6224 47.3438 14.6484C48.0469 14.7005 48.4766 14.9219 48.6328 15.3125C48.8151 15.7031 48.8411 16.3281 48.7109 17.1875C48.6328 17.6302 48.4766 18.1901 48.2422 18.8672C48.0078 19.5443 47.7344 20.3776 47.4219 21.3672C47.1094 22.3307 46.7708 23.4375 46.4062 24.6875C46.0677 25.9375 45.7422 27.3438 45.4297 28.9062C45.1172 30.1823 44.7786 31.6536 44.4141 33.3203C44.1016 34.7786 43.724 36.5365 43.2812 38.5938C42.8646 40.651 42.4089 43.0078 41.9141 45.6641C41.7839 46.3151 41.4974 46.6927 41.0547 46.7969C40.638 46.901 40.1953 46.849 39.7266 46.6406C39.5443 46.5365 39.375 46.4193 39.2188 46.2891C39.0885 46.1589 38.9453 46.0026 38.7891 45.8203C38.6328 45.6641 38.5026 45.4427 38.3984 45.1562C38.9974 42.9688 39.5182 40.9766 39.9609 39.1797C40.4297 37.3828 40.8464 35.8203 41.2109 34.4922C41.6016 32.9557 41.9661 31.5755 42.3047 30.3516C42.4349 29.8047 42.5521 29.2708 42.6562 28.75C42.7865 28.2031 42.9167 27.6693 43.0469 27.1484C42.7083 27.6953 42.3438 28.2161 41.9531 28.7109C41.5625 29.2057 41.1328 29.6354 40.6641 30C40.1953 30.3646 39.6875 30.638 39.1406 30.8203C38.6198 31.0286 38.0729 31.0938 37.5 31.0156C36.0938 30.8333 35.0911 30.3125 34.4922 29.4531C33.9193 28.5938 33.6719 27.474 33.75 26.0938C33.776 25.5469 33.8542 24.9479 33.9844 24.2969C34.1146 23.6458 34.2578 23.0208 34.4141 22.4219C34.5703 21.8229 34.7135 21.2891 34.8438 20.8203C35 20.3255 35.1172 19.974 35.1953 19.7656C35.5078 18.776 35.7292 17.9297 35.8594 17.2266C36.0156 16.5234 35.9115 15.9375 35.5469 15.4688C35.9115 15.2344 36.25 15.0781 36.5625 15C36.901 14.8958 37.2005 14.8177 37.4609 14.7656C37.7474 14.7396 38.0339 14.7396 38.3203 14.7656C39.0234 14.8698 39.4271 15.1302 39.5312 15.5469C39.6615 15.9635 39.6224 16.5885 39.4141 17.4219C39.3099 17.8646 39.1406 18.4375 38.9062 19.1406C38.6719 19.8177 38.4245 20.5208 38.1641 21.25C37.9036 21.9792 37.6693 22.6562 37.4609 23.2812C37.2526 23.8802 37.1354 24.3099 37.1094 24.5703C36.875 25.7422 36.862 26.6536 37.0703 27.3047C37.2786 27.9297 37.7344 28.2422 38.4375 28.2422C38.776 28.2422 39.1536 28.099 39.5703 27.8125C39.987 27.5 40.4036 27.0964 40.8203 26.6016C41.263 26.1068 41.6927 25.5469 42.1094 24.9219C42.526 24.2708 42.9036 23.6198 43.2422 22.9688C43.6068 22.3177 43.9193 21.6797 44.1797 21.0547C44.4661 20.4297 44.6745 19.8698 44.8047 19.375C44.987 18.4115 45.1042 17.6562 45.1562 17.1094C45.2083 16.5625 45.026 16.0677 44.6094 15.625ZM62.6953 37.3828C62.0703 37.3828 61.6927 37.3047 61.5625 37.1484C61.4062 37.0182 61.3802 36.7448 61.4844 36.3281C61.5104 36.1979 61.6406 35.612 61.875 34.5703C62.1094 33.5547 62.3958 32.3047 62.7344 30.8203C63.099 29.362 63.4766 27.7734 63.8672 26.0547C64.2839 24.3359 64.6745 22.7214 65.0391 21.2109C64.4922 21.263 64.0885 21.224 63.8281 21.0938C63.5677 20.9375 63.4375 20.7422 63.4375 20.5078C63.4635 20.2474 63.6068 19.987 63.8672 19.7266C64.1536 19.4661 64.5573 19.2448 65.0781 19.0625C65.1823 19.0104 65.3385 18.9583 65.5469 18.9062C65.6771 18.4635 65.7943 18.0078 65.8984 17.5391C66.0026 17.1484 66.1068 16.7318 66.2109 16.2891C66.3151 15.8464 66.4193 15.4167 66.5234 15L69.2578 3.32031C69.4141 2.72135 69.6484 2.27865 69.9609 1.99219C70.2995 1.67969 70.9115 1.41927 71.7969 1.21094C72.526 1.02865 73.0339 0.963542 73.3203 1.01562C73.6068 1.04167 73.737 1.11979 73.7109 1.25C73.6328 1.53646 73.4375 2.22656 73.125 3.32031C72.8125 4.41406 72.4349 5.75521 71.9922 7.34375C71.5755 8.90625 71.1198 10.638 70.625 12.5391C70.1302 14.4141 69.6484 16.276 69.1797 18.125C70.7422 17.8906 72.6432 17.6953 74.8828 17.5391C75.7422 17.4349 76.5755 17.3698 77.3828 17.3438C78.2161 17.3177 79.0104 17.3177 79.7656 17.3438C80.1302 15.9375 80.4818 14.5312 80.8203 13.125C81.1849 11.7188 81.5234 10.4167 81.8359 9.21875C82.1484 8.02083 82.4219 6.96615 82.6562 6.05469C82.9167 5.11719 83.112 4.42708 83.2422 3.98438C83.3984 3.48958 83.5417 3.08594 83.6719 2.77344C83.8281 2.46094 83.9974 2.21354 84.1797 2.03125C84.388 1.84896 84.6224 1.71875 84.8828 1.64062C85.1432 1.5625 85.4427 1.4974 85.7812 1.44531C85.9635 1.44531 86.1849 1.43229 86.4453 1.40625C86.6536 1.40625 86.901 1.40625 87.1875 1.40625C87.474 1.38021 87.7995 1.39323 88.1641 1.44531C87.1745 4.10156 86.25 6.79688 85.3906 9.53125C84.5573 12.2396 83.776 14.8828 83.0469 17.4609C83.5156 17.513 83.9193 17.5521 84.2578 17.5781C84.6224 17.6042 84.9089 17.6432 85.1172 17.6953C85.7422 17.7995 86.1328 17.9688 86.2891 18.2031C86.4714 18.4375 86.4193 18.776 86.1328 19.2188L85.6641 19.8047C85.5078 20.013 85.3125 20.2604 85.0781 20.5469C84.8438 20.8073 84.5443 21.1068 84.1797 21.4453C83.9714 21.3672 83.75 21.2891 83.5156 21.2109C83.3073 21.1328 83.099 21.0547 82.8906 20.9766C82.6302 20.8984 82.3828 20.8203 82.1484 20.7422C81.9661 21.3672 81.7969 21.9792 81.6406 22.5781C81.4844 23.151 81.3411 23.737 81.2109 24.3359C80.8984 25.612 80.599 26.9271 80.3125 28.2812C80.0781 29.4531 79.8307 30.7422 79.5703 32.1484C79.3359 33.5807 79.1536 34.987 79.0234 36.3672C78.8151 36.4714 78.6068 36.5365 78.3984 36.5625C78.1901 36.6146 78.0078 36.6536 77.8516 36.6797C77.6693 36.7057 77.487 36.7318 77.3047 36.7578H77.2656H77.1875H77.1094C77.0052 36.7578 76.901 36.7578 76.7969 36.7578C76.6927 36.7578 76.5885 36.7318 76.4844 36.6797C76.3542 36.6536 76.224 36.6146 76.0938 36.5625C75.9635 36.5104 75.8333 36.4583 75.7031 36.4062C75.599 36.3802 75.4818 36.3281 75.3516 36.25C75.5599 35.3906 75.7161 34.5833 75.8203 33.8281C75.9505 33.0729 76.0417 32.4089 76.0938 31.8359C76.1719 31.1589 76.224 30.5599 76.25 30.0391C76.276 29.362 76.1979 28.6198 76.0156 27.8125C75.8594 27.0052 75.599 26.2109 75.2344 25.4297C74.8958 24.6484 74.4661 23.9193 73.9453 23.2422C73.4505 22.5651 72.8776 21.9922 72.2266 21.5234C71.5755 21.0807 70.9505 20.7943 70.3516 20.6641C69.7786 20.5339 69.1927 20.4948 68.5938 20.5469C68.4115 21.3281 68.2422 22.0833 68.0859 22.8125C67.9297 23.5417 67.7995 24.2448 67.6953 24.9219C67.4089 26.4323 67.1354 27.9036 66.875 29.3359C66.6667 30.5599 66.4453 31.8229 66.2109 33.125C66.0026 34.4531 65.8464 35.5859 65.7422 36.5234C65.3255 36.7318 64.9349 36.888 64.5703 36.9922C64.2057 37.1224 63.8802 37.2135 63.5938 37.2656C63.2812 37.3438 62.9818 37.3828 62.6953 37.3828ZM78.1641 20.0391C77.2526 19.9349 76.3802 19.8828 75.5469 19.8828C74.7396 19.8568 74.0234 19.8438 73.3984 19.8438C73.9193 20.1302 74.375 20.5078 74.7656 20.9766C75.1823 21.4453 75.612 21.9792 76.0547 22.5781C76.4714 23.125 76.8099 23.724 77.0703 24.375C77.3307 25.026 77.5521 25.651 77.7344 26.25C77.9427 25.1562 78.1641 24.0885 78.3984 23.0469C78.6328 22.0052 78.8542 21.0286 79.0625 20.1172C78.9062 20.0911 78.75 20.0781 78.5938 20.0781C78.4635 20.0521 78.3203 20.0391 78.1641 20.0391ZM99.3359 23.7891C99.0755 24.7786 98.724 25.7031 98.2812 26.5625C97.8385 27.4219 97.3047 28.1641 96.6797 28.7891C96.0807 29.4141 95.3906 29.8958 94.6094 30.2344C93.8542 30.599 93.0208 30.7812 92.1094 30.7812C91.0417 30.7812 90.1953 30.5469 89.5703 30.0781C88.9714 29.6354 88.5156 29.0755 88.2031 28.3984C87.9167 27.7214 87.7474 26.9792 87.6953 26.1719C87.6172 25.3646 87.5781 24.6094 87.5781 23.9062C87.5781 23.4115 87.6432 22.8646 87.7734 22.2656C87.8776 21.6667 88.0339 21.0547 88.2422 20.4297C88.4505 19.8047 88.7109 19.1797 89.0234 18.5547C89.362 17.9297 89.7526 17.3568 90.1953 16.8359C90.3516 16.3932 90.5859 16.0026 90.8984 15.6641C91.237 15.3255 91.6146 15.0521 92.0312 14.8438C92.474 14.6094 92.9427 14.4401 93.4375 14.3359C93.9323 14.2057 94.4141 14.1406 94.8828 14.1406C94.9609 14.1406 95.026 14.1536 95.0781 14.1797C95.1562 14.2057 95.2344 14.2318 95.3125 14.2578C95.651 14.2839 96.0677 14.4141 96.5625 14.6484C97.0833 14.8828 97.5781 15.2344 98.0469 15.7031C98.5417 16.1719 98.9583 16.7708 99.2969 17.5C99.6354 18.2031 99.8047 19.0625 99.8047 20.0781C99.8047 20.2865 99.7917 20.5469 99.7656 20.8594C99.7396 21.1458 99.7135 21.3932 99.6875 21.6016C100.286 21.3672 100.911 21.0807 101.562 20.7422C102.214 20.4036 102.839 20.0521 103.438 19.6875C104.062 19.2969 104.635 18.9062 105.156 18.5156C105.677 18.125 106.094 17.7734 106.406 17.4609C106.667 17.2266 106.888 17.0964 107.07 17.0703C107.253 17.0443 107.383 17.0964 107.461 17.2266C107.539 17.3568 107.552 17.5391 107.5 17.7734C107.448 18.0078 107.305 18.2682 107.07 18.5547C106.94 18.7109 106.602 19.0234 106.055 19.4922C105.534 19.9609 104.909 20.4688 104.18 21.0156C103.451 21.5625 102.656 22.0964 101.797 22.6172C100.938 23.138 100.117 23.5286 99.3359 23.7891ZM92.7344 17.8516C92.6562 18.0859 92.6172 18.3333 92.6172 18.5938C92.6172 19.0104 92.6432 19.4531 92.6953 19.9219C92.7474 20.3646 92.8776 20.7682 93.0859 21.1328C93.2943 21.4974 93.6198 21.8099 94.0625 22.0703C94.5312 22.3047 95.1693 22.4219 95.9766 22.4219C96.1068 22.4219 96.237 22.4219 96.3672 22.4219C96.4974 22.3958 96.6276 22.3698 96.7578 22.3438C96.8359 22.0052 96.901 21.7057 96.9531 21.4453C97.0312 21.1589 97.0703 20.9115 97.0703 20.7031C97.1224 20.2083 97.1224 19.7005 97.0703 19.1797C97.0182 18.6589 96.9141 18.1901 96.7578 17.7734C96.6276 17.3307 96.4453 16.9792 96.2109 16.7188C96.0026 16.4323 95.7422 16.2891 95.4297 16.2891C94.9349 16.2891 94.4531 16.4323 93.9844 16.7188C93.5417 16.9792 93.125 17.3568 92.7344 17.8516ZM90.2344 24.7266C90.2344 25.1953 90.2604 25.6641 90.3125 26.1328C90.3646 26.5755 90.4688 26.9792 90.625 27.3438C90.7812 27.6823 90.9896 27.9688 91.25 28.2031C91.5104 28.4115 91.849 28.5156 92.2656 28.5156C92.7344 28.5156 93.1641 28.4115 93.5547 28.2031C93.9453 27.9688 94.2969 27.6823 94.6094 27.3438C94.9219 26.9792 95.1953 26.5755 95.4297 26.1328C95.6901 25.6641 95.9115 25.1823 96.0938 24.6875C95.9115 24.7135 95.7292 24.7396 95.5469 24.7656C95.3906 24.7656 95.2083 24.7656 95 24.7656C94.0104 24.7656 93.151 24.4792 92.4219 23.9062C91.7188 23.3073 91.1719 22.5521 90.7812 21.6406C90.625 22.1875 90.4948 22.7214 90.3906 23.2422C90.2865 23.763 90.2344 24.2578 90.2344 24.7266ZM117.93 20.1172C118.034 19.9609 118.164 19.8698 118.32 19.8438C118.503 19.7917 118.646 19.8047 118.75 19.8828C118.854 19.9609 118.906 20.0911 118.906 20.2734C118.932 20.4557 118.867 20.7031 118.711 21.0156C118.19 22.0052 117.5 23.0729 116.641 24.2188C115.807 25.3646 114.922 26.4453 113.984 27.4609C113.047 28.4505 112.135 29.2708 111.25 29.9219C110.365 30.5729 109.622 30.8984 109.023 30.8984C108.164 30.8984 107.448 30.7292 106.875 30.3906C106.302 30.0521 105.846 29.6354 105.508 29.1406C105.195 28.6458 104.974 28.112 104.844 27.5391C104.714 26.9401 104.674 26.3932 104.727 25.8984C104.753 25.4818 104.844 24.7396 105 23.6719C105.156 22.5781 105.365 21.3281 105.625 19.9219C105.885 18.4896 106.172 16.9661 106.484 15.3516C106.823 13.7109 107.174 12.1354 107.539 10.625C107.096 10.6771 106.654 10.7292 106.211 10.7812C105.768 10.8333 105.365 10.8594 105 10.8594C104.167 10.8594 103.385 10.7682 102.656 10.5859C101.901 10.3776 101.341 10.1823 100.977 10C100.768 9.89583 100.677 9.7526 100.703 9.57031C100.729 9.36198 100.807 9.16667 100.938 8.98438C101.068 8.77604 101.237 8.60677 101.445 8.47656C101.628 8.32031 101.797 8.24219 101.953 8.24219C102.448 8.29427 102.982 8.34635 103.555 8.39844C104.128 8.42448 104.753 8.42448 105.43 8.39844C105.924 8.3724 106.393 8.33333 106.836 8.28125C107.305 8.22917 107.76 8.16406 108.203 8.08594C108.542 6.83594 108.867 5.75521 109.18 4.84375C109.518 3.90625 109.818 3.25521 110.078 2.89062C110.156 2.76042 110.326 2.65625 110.586 2.57812C110.872 2.47396 111.172 2.40885 111.484 2.38281C111.797 2.33073 112.096 2.33073 112.383 2.38281C112.669 2.40885 112.878 2.5 113.008 2.65625C113.138 2.86458 113.19 3.39844 113.164 4.25781C113.138 5.11719 112.995 6.21094 112.734 7.53906C113.828 7.53906 114.792 7.60417 115.625 7.73438C116.484 7.83854 117.214 7.96875 117.812 8.125C118.411 8.25521 118.893 8.39844 119.258 8.55469C119.622 8.6849 119.896 8.77604 120.078 8.82812C120.26 8.88021 120.352 9.01042 120.352 9.21875C120.378 9.42708 120.339 9.64844 120.234 9.88281C120.156 10.0911 120.013 10.2734 119.805 10.4297C119.596 10.5859 119.362 10.638 119.102 10.5859C118.841 10.5599 118.542 10.5078 118.203 10.4297C117.891 10.3516 117.5 10.2865 117.031 10.2344C116.589 10.1823 116.055 10.1302 115.43 10.0781C114.805 10.026 114.076 10 113.242 10C113.086 10 112.904 10.013 112.695 10.0391C112.513 10.0391 112.318 10.0391 112.109 10.0391C112.005 10.4557 111.901 10.8724 111.797 11.2891C111.719 11.6797 111.602 12.0964 111.445 12.5391C111.107 13.5807 110.716 14.7135 110.273 15.9375C109.883 17.0052 109.414 18.2292 108.867 19.6094C108.32 20.9896 107.708 22.4609 107.031 24.0234C106.875 25.1432 106.888 26.0026 107.07 26.6016C107.279 27.1745 107.526 27.5911 107.812 27.8516C108.151 28.138 108.568 28.2943 109.062 28.3203C109.453 28.3724 109.922 28.2422 110.469 27.9297C111.042 27.5911 111.628 27.1484 112.227 26.6016C112.826 26.0547 113.424 25.4557 114.023 24.8047C114.648 24.1536 115.221 23.5156 115.742 22.8906C116.263 22.2656 116.719 21.7057 117.109 21.2109C117.5 20.6901 117.773 20.3255 117.93 20.1172ZM133.281 21.875C132.5 23.0208 131.615 24.1406 130.625 25.2344C129.635 26.3021 128.581 27.2656 127.461 28.125C126.367 28.9583 125.234 29.6354 124.062 30.1562C122.917 30.6771 121.797 30.9375 120.703 30.9375C120.13 30.9375 119.505 30.7943 118.828 30.5078C118.177 30.2474 117.578 29.8307 117.031 29.2578C116.484 28.6849 116.042 27.9427 115.703 27.0312C115.391 26.1198 115.299 25.013 115.43 23.7109C115.534 22.6432 115.859 21.5234 116.406 20.3516C116.979 19.1536 117.669 18.0599 118.477 17.0703C119.31 16.0807 120.234 15.2604 121.25 14.6094C122.292 13.9583 123.333 13.6328 124.375 13.6328C125.365 13.6328 126.081 13.8802 126.523 14.375C126.966 14.8698 127.161 15.4818 127.109 16.2109C127.031 17.0182 126.797 17.7604 126.406 18.4375C126.042 19.1146 125.599 19.7266 125.078 20.2734C124.557 20.8203 123.997 21.3151 123.398 21.7578C122.826 22.2005 122.279 22.6042 121.758 22.9688C121.185 23.3594 120.638 23.737 120.117 24.1016C119.596 24.4401 119.141 24.7526 118.75 25.0391C118.776 25.6901 118.893 26.237 119.102 26.6797C119.31 27.1224 119.57 27.487 119.883 27.7734C120.195 28.0339 120.547 28.2292 120.938 28.3594C121.354 28.4635 121.771 28.5156 122.188 28.5156C123.073 28.5156 123.997 28.2422 124.961 27.6953C125.924 27.1224 126.862 26.4453 127.773 25.6641C128.711 24.8568 129.57 24.0234 130.352 23.1641C131.159 22.3047 131.823 21.5625 132.344 20.9375C132.526 20.7292 132.708 20.612 132.891 20.5859C133.099 20.5339 133.255 20.5599 133.359 20.6641C133.49 20.7422 133.555 20.8984 133.555 21.1328C133.555 21.3411 133.464 21.5885 133.281 21.875ZM123.281 15.8594C122.969 15.8594 122.591 16.0156 122.148 16.3281C121.732 16.6406 121.315 17.0964 120.898 17.6953C120.482 18.2682 120.091 18.9844 119.727 19.8438C119.362 20.6771 119.089 21.6406 118.906 22.7344C119.219 22.5 119.557 22.2656 119.922 22.0312C120.286 21.7708 120.651 21.4974 121.016 21.2109C122.135 20.3516 122.917 19.5964 123.359 18.9453C123.802 18.2943 124.049 17.7344 124.102 17.2656C124.154 16.7708 124.102 16.4193 123.945 16.2109C123.789 15.9766 123.568 15.8594 123.281 15.8594ZM129.883 29.375C131.029 24.5573 131.94 20.6901 132.617 17.7734C133.32 14.8568 133.854 12.6302 134.219 11.0938C134.635 9.27083 134.922 8.00781 135.078 7.30469C135.156 6.8099 135.221 6.32812 135.273 5.85938C135.326 5.44271 135.352 5.01302 135.352 4.57031C135.352 4.1276 135.312 3.72396 135.234 3.35938C135.443 3.22917 135.664 3.125 135.898 3.04688C136.159 2.96875 136.406 2.90365 136.641 2.85156C136.927 2.77344 137.214 2.70833 137.5 2.65625C137.786 2.60417 138.047 2.57812 138.281 2.57812C138.49 2.57812 138.685 2.60417 138.867 2.65625C139.049 2.68229 139.167 2.76042 139.219 2.89062C139.375 3.02083 139.44 3.28125 139.414 3.67188C139.414 4.0625 139.388 4.46615 139.336 4.88281C139.232 5.3776 139.115 5.91146 138.984 6.48438C138.672 7.60417 138.242 9.21875 137.695 11.3281C137.227 13.125 136.589 15.5729 135.781 18.6719C135 21.7708 134.01 25.6771 132.812 30.3906C132.682 30.5208 132.526 30.612 132.344 30.6641C132.161 30.7161 131.992 30.7422 131.836 30.7422C131.654 30.7422 131.458 30.7292 131.25 30.7031C131.068 30.651 130.885 30.5729 130.703 30.4688C130.547 30.3646 130.391 30.2214 130.234 30.0391C130.078 29.8828 129.961 29.6615 129.883 29.375Z" fill="#262626"/>
</svg>
